<?xml version="1.0" encoding="UTF-8"?>
<svg width="70px" height="107px" viewBox="0 0 70 107" version="1.1" xmlns="http://www.w3.org/2000/svg" xmlns:xlink="http://www.w3.org/1999/xlink">
    <!-- Generator: Sketch 62 (91390) - https://sketch.com -->
    <title>Group 14</title>
    <desc>Created with Sketch.</desc>
    <g id="Page-1" stroke="none" stroke-width="1" fill="none" fill-rule="evenodd">
        <g id="Icon-Copy" transform="translate(-65.000000, -46.000000)" fill="#B6E059">
            <g id="Group-14" transform="translate(65.000000, 46.000000)">
                <path d="M13.9565217,28 C15.8371878,28 17.6188714,27.637037 19.3015726,26.9111111 C20.9842738,26.1851852 22.4690102,25.2 23.7557817,23.9555556 C25.0425532,22.7111111 26.057123,21.2333333 26.7994912,19.5222222 C27.5418594,17.8111111 27.9130435,15.9703704 27.9130435,14 C27.9130435,12.0296296 27.5418594,10.1888889 26.7994912,8.47777778 C26.057123,6.76666667 25.0425532,5.28888889 23.7557817,4.04444444 C22.4690102,2.8 20.9842738,1.81481481 19.3015726,1.08888889 C17.6188714,0.362962963 15.8371878,0 13.9565217,0 C11.9768733,0 10.1456984,0.388888889 8.46299722,1.16666667 C6.78029602,1.94444444 5.29555967,2.95555556 4.00878816,4.2 C2.72201665,5.44444444 1.73219241,6.92222222 1.03931545,8.63333333 C0.346438483,10.3444444 5.86197757e-14,12.1333333 5.86197757e-14,14 C5.86197757e-14,17.837037 1.33626272,21.1296296 4.00878816,23.8777778 C6.6813136,26.6259259 9.99722479,28 13.9565217,28 Z" id="Path"></path>
                <polygon id="Path" points="27.9130435 107 27.9130435 37 4.65217391 37 4.65217391 107"></polygon>
                <polygon id="Path" points="69.7826087 70 69.7826087 5 46.5217391 5 46.5217391 70"></polygon>
                <path d="M55.7545151,107 C57.6630992,107 59.4762542,106.62963 61.1939799,105.888889 C62.9117057,105.148148 64.4147157,104.160494 65.70301,102.925926 C66.9913043,101.691358 67.993311,100.209877 68.7090301,98.4814815 C69.4247492,96.7530864 69.7826087,94.9012346 69.7826087,92.9259259 C69.7826087,91.0493827 69.4247492,89.2469136 68.7090301,87.5185185 C67.993311,85.7901235 66.9913043,84.308642 65.70301,83.0740741 C64.4147157,81.8395062 62.9117057,80.8518519 61.1939799,80.1111111 C59.4762542,79.3703704 57.6630992,79 55.7545151,79 C53.8459309,79 52.0327759,79.3703704 50.3150502,80.1111111 C48.5973244,80.8518519 47.1181717,81.8641975 45.877592,83.1481481 C44.6370123,84.4320988 43.6588629,85.9382716 42.9431438,87.6666667 C42.2274247,89.3950617 41.8695652,91.1975309 41.8695652,93.0740741 C41.8695652,95.0493827 42.2512821,96.8765432 43.0147157,98.5555556 C43.7781494,100.234568 44.7801561,101.716049 46.0207358,103 C47.2613155,104.283951 48.7166109,105.271605 50.3866221,105.962963 C52.0566332,106.654321 53.8459309,107 55.7545151,107 Z" id="Path"></path>
            </g>
        </g>
    </g>
</svg>